# xmcd CD database file
#
# Track frame offsets:
#	150
#	16257
#	34526
#	50897
#	68944
#
# Disc length: 1144 seconds
#
# Revision: 3
# Processed by: cddbd v1.5.2PL0 Copyright (c) Steve Scherf et al.
# Submitted via: CDex 1.70beta3
#
DISCID=3d047605
DTITLE=Joe Pass - The Cool Jazz Collection 61
DYEAR=1900
DGENRE=Jazz
TTITLE0=Night And Day
TTITLE1=All the Things You Are
TTITLE2=Yardbird Suite
TTITLE3=You Stepped out of a Dream
TTITLE4=Lil' Darlin
EXTD=
EXTT0=
EXTT1=
EXTT2=
EXTT3=
EXTT4=
PLAYORDER=
